# Blender v2.93.5 OBJ File: ''
# www.blender.org
mtllib Warden.mtl
o cube
v -0.062500 0.000000 -0.062500
v 0.062500 0.187500 -0.062500
v 0.062500 0.000000 -0.062500
v 0.062500 0.187500 0.062500
v 0.062500 -0.000000 0.062500
v -0.062500 0.187500 0.062500
v -0.062500 -0.000000 0.062500
v -0.062500 0.187500 -0.062500
vt 0.128906 0.003906
vt 0.125000 0.009766
vt 0.125000 0.003906
vt 0.134766 0.003906
vt 0.128906 0.009766
vt 0.128906 0.003906
vt 0.136719 0.003906
vt 0.134766 0.009766
vt 0.134766 0.003906
vt 0.140625 0.003906
vt 0.136719 0.009766
vt 0.136719 0.003906
vt 0.125000 0.013672
vt 0.125000 0.009766
vt 0.134766 0.009766
vt 0.128906 0.013672
vt 0.128906 0.009766
vt 0.128906 0.009766
vt 0.134766 0.009766
vt 0.136719 0.009766
vt 0.140625 0.009766
vt 0.128906 0.013672
vt 0.134766 0.013672
vn 0.0000 0.0000 -1.0000
vn 1.0000 0.0000 0.0000
vn 0.0000 -0.0000 1.0000
vn -1.0000 0.0000 0.0000
vn 0.0000 1.0000 0.0000
vn 0.0000 -1.0000 -0.0000
usemtl m_0
s 1
f 1/1/1 2/2/1 3/3/1
f 3/4/2 4/5/2 5/6/2
f 5/7/3 6/8/3 7/9/3
f 7/10/4 8/11/4 1/12/4
f 4/5/5 8/13/5 6/14/5
f 3/15/6 7/16/6 1/17/6
f 1/1/1 8/18/1 2/2/1
f 3/4/2 2/19/2 4/5/2
f 5/7/3 4/20/3 6/8/3
f 7/10/4 6/21/4 8/11/4
f 4/5/5 2/22/5 8/13/5
f 3/15/6 5/23/6 7/16/6
o cube.000
v -0.125000 0.250000 -0.125000
v 0.125000 0.375000 -0.125000
v 0.125000 0.250000 -0.125000
v 0.125000 0.375000 0.125000
v 0.125000 0.250000 0.125000
v -0.125000 0.375000 0.125000
v -0.125000 0.250000 0.125000
v -0.125000 0.375000 -0.125000
vt 0.132812 0.013672
vt 0.125000 0.017578
vt 0.125000 0.013672
vt 0.140625 0.013672
vt 0.132812 0.017578
vt 0.132812 0.013672
vt 0.146484 0.013672
vt 0.140625 0.017578
vt 0.140625 0.013672
vt 0.156250 0.013672
vt 0.146484 0.017578
vt 0.146484 0.013672
vt 0.125000 0.025391
vt 0.125000 0.017578
vt 0.140625 0.017578
vt 0.132812 0.025391
vt 0.132812 0.017578
vt 0.132812 0.017578
vt 0.140625 0.017578
vt 0.146484 0.017578
vt 0.156250 0.017578
vt 0.132812 0.025391
vt 0.140625 0.025391
vn 0.0000 0.0000 -1.0000
vn 1.0000 -0.0000 0.0000
vn 0.0000 -0.0000 1.0000
vn -1.0000 -0.0000 0.0000
vn 0.0000 1.0000 0.0000
vn 0.0000 -1.0000 -0.0000
usemtl m_0
s 1
f 9/24/7 10/25/7 11/26/7
f 11/27/8 12/28/8 13/29/8
f 13/30/9 14/31/9 15/32/9
f 15/33/10 16/34/10 9/35/10
f 12/28/11 16/36/11 14/37/11
f 11/38/12 15/39/12 9/40/12
f 9/24/7 16/41/7 10/25/7
f 11/27/8 10/42/8 12/28/8
f 13/30/9 12/43/9 14/31/9
f 15/33/10 14/44/10 16/34/10
f 12/28/11 10/45/11 16/36/11
f 11/38/12 13/46/12 15/39/12
o cube.001
v -0.125000 0.187500 -0.062500
v 0.125000 0.250000 -0.062500
v 0.125000 0.187500 -0.062500
v 0.125000 0.250000 0.062500
v 0.125000 0.187500 0.062500
v -0.125000 0.250000 0.062500
v -0.125000 0.187500 0.062500
v -0.125000 0.250000 -0.062500
vt 0.152344 -0.000000
vt 0.144531 0.001953
vt 0.144531 -0.000000
vt 0.156250 -0.000000
vt 0.152344 0.001953
vt 0.152344 -0.000000
vt 0.152344 0.001953
vt 0.144531 0.003906
vt 0.144531 0.001953
vt 0.156250 0.001953
vt 0.152344 0.003906
vt 0.152344 0.001953
vt 0.152344 0.003906
vt 0.144531 0.007812
vt 0.152344 0.007812
vt 0.144531 0.011719
vt 0.144531 0.007812
vt 0.152344 0.001953
vt 0.156250 0.001953
vt 0.156250 0.003906
vt 0.152344 0.007812
vt 0.152344 0.011719
vn 0.0000 0.0000 -1.0000
vn 1.0000 -0.0000 0.0000
vn 0.0000 -0.0000 1.0000
vn -1.0000 -0.0000 0.0000
vn 0.0000 1.0000 0.0000
vn 0.0000 -1.0000 -0.0000
usemtl m_0
s 1
f 17/47/13 18/48/13 19/49/13
f 19/50/14 20/51/14 21/52/14
f 21/53/15 22/54/15 23/55/15
f 23/56/16 24/57/16 17/58/16
f 20/59/17 24/60/17 22/54/17
f 19/61/18 23/62/18 17/63/18
f 17/47/13 24/64/13 18/48/13
f 19/50/14 18/65/14 20/51/14
f 21/53/15 20/59/15 22/54/15
f 23/56/16 22/66/16 24/57/16
f 20/59/17 18/67/17 24/60/17
f 19/61/18 21/68/18 23/62/18
o cube.002
v -0.125000 0.000000 -0.125000
v -0.062500 0.062500 -0.125000
v -0.062500 0.000000 -0.125000
v -0.062500 0.062500 0.125000
v -0.062500 -0.000000 0.125000
v -0.125000 0.062500 0.125000
v -0.125000 -0.000000 0.125000
v -0.125000 0.062500 -0.125000
vt 0.126953 0.001953
vt 0.125000 0.003906
vt 0.125000 0.001953
vt 0.134766 -0.000000
vt 0.125000 0.001953
vt 0.125000 -0.000000
vt 0.128906 0.001953
vt 0.126953 0.003906
vt 0.126953 0.001953
vt 0.140625 -0.000000
vt 0.134766 0.001953
vt 0.134766 -0.000000
vt 0.142578 -0.000000
vt 0.140625 0.007812
vt 0.140625 -0.000000
vt 0.144531 -0.000000
vt 0.142578 0.007812
vt 0.142578 -0.000000
vt 0.126953 0.003906
vt 0.134766 0.001953
vt 0.128906 0.003906
vt 0.140625 0.001953
vt 0.142578 0.007812
vt 0.144531 0.007812
vn 0.0000 0.0000 -1.0000
vn 1.0000 -0.0000 0.0000
vn 0.0000 -0.0000 1.0000
vn -1.0000 -0.0000 0.0000
vn 0.0000 1.0000 0.0000
vn 0.0000 -1.0000 -0.0000
usemtl m_0
s 1
f 25/69/19 26/70/19 27/71/19
f 27/72/20 28/73/20 29/74/20
f 29/75/21 30/76/21 31/77/21
f 31/78/22 32/79/22 25/80/22
f 28/81/23 32/82/23 30/83/23
f 27/84/24 31/85/24 25/86/24
f 25/69/19 32/87/19 26/70/19
f 27/72/20 26/88/20 28/73/20
f 29/75/21 28/89/21 30/76/21
f 31/78/22 30/90/22 32/79/22
f 28/81/23 26/91/23 32/82/23
f 27/84/24 29/92/24 31/85/24
o cube.003
v 0.062500 0.000000 -0.125000
v 0.125000 0.062500 -0.125000
v 0.125000 0.000000 -0.125000
v 0.125000 0.062500 0.125000
v 0.125000 -0.000000 0.125000
v 0.062500 0.062500 0.125000
v 0.062500 -0.000000 0.125000
v 0.062500 0.062500 -0.125000
vt 0.126953 0.001953
vt 0.125000 0.003906
vt 0.125000 0.001953
vt 0.140625 -0.000000
vt 0.134766 0.001953
vt 0.134766 -0.000000
vt 0.128906 0.001953
vt 0.126953 0.003906
vt 0.126953 0.001953
vt 0.134766 -0.000000
vt 0.125000 0.001953
vt 0.125000 -0.000000
vt 0.142578 -0.000000
vt 0.140625 0.007812
vt 0.140625 -0.000000
vt 0.144531 -0.000000
vt 0.142578 0.007812
vt 0.142578 -0.000000
vt 0.126953 0.003906
vt 0.140625 0.001953
vt 0.128906 0.003906
vt 0.134766 0.001953
vt 0.142578 0.007812
vt 0.144531 0.007812
vn 0.0000 0.0000 -1.0000
vn 1.0000 0.0000 0.0000
vn 0.0000 -0.0000 1.0000
vn -1.0000 0.0000 0.0000
vn 0.0000 1.0000 0.0000
vn 0.0000 -1.0000 -0.0000
usemtl m_0
s 1
f 33/93/25 34/94/25 35/95/25
f 35/96/26 36/97/26 37/98/26
f 37/99/27 38/100/27 39/101/27
f 39/102/28 40/103/28 33/104/28
f 36/105/29 40/106/29 38/107/29
f 35/108/30 39/109/30 33/110/30
f 33/93/25 40/111/25 34/94/25
f 35/96/26 34/112/26 36/97/26
f 37/99/27 36/113/27 38/100/27
f 39/102/28 38/114/28 40/103/28
f 36/105/29 34/115/29 40/106/29
f 35/108/30 37/116/30 39/109/30
o sphere
v 0.000000 0.366627 -0.093750
v 0.015625 0.366627 -0.097937
v 0.000000 0.375000 -0.125000
v 0.000000 0.343750 -0.070873
v 0.000000 0.312500 -0.062500
v 0.027063 0.343750 -0.078125
v 0.000000 0.281250 -0.070873
v 0.031250 0.312500 -0.070873
v 0.015625 0.258373 -0.097937
v 0.027063 0.281250 -0.078125
v 0.000000 0.258373 -0.093750
v 0.000000 0.250000 -0.125000
v 0.027063 0.366627 -0.109375
v 0.046875 0.343750 -0.097937
v 0.046875 0.281250 -0.097937
v 0.054127 0.312500 -0.093750
v 0.027063 0.258373 -0.109375
v 0.031250 0.366627 -0.125000
v 0.054127 0.343750 -0.125000
v 0.054127 0.281250 -0.125000
v 0.062500 0.312500 -0.125000
v 0.031250 0.258373 -0.125000
v 0.027063 0.366627 -0.140625
v 0.054127 0.312500 -0.156250
v 0.046875 0.343750 -0.152063
v 0.046875 0.281250 -0.152063
v 0.027063 0.258373 -0.140625
v 0.015625 0.366627 -0.152063
v 0.027063 0.343750 -0.171875
v 0.031250 0.312500 -0.179127
v 0.027063 0.281250 -0.171875
v 0.015625 0.258373 -0.152063
v 0.000000 0.366627 -0.156250
v 0.000000 0.343750 -0.179127
v 0.000000 0.312500 -0.187500
v 0.000000 0.281250 -0.179127
v 0.000000 0.258373 -0.156250
v -0.015625 0.366627 -0.152063
v -0.027063 0.343750 -0.171875
v -0.031250 0.312500 -0.179127
v -0.015625 0.258373 -0.152063
v -0.027063 0.281250 -0.171875
v -0.027063 0.366627 -0.140625
v -0.046875 0.343750 -0.152063
v -0.046875 0.281250 -0.152063
v -0.054127 0.312500 -0.156250
v -0.027063 0.258373 -0.140625
v -0.031250 0.366627 -0.125000
v -0.054127 0.343750 -0.125000
v -0.054127 0.281250 -0.125000
v -0.062500 0.312500 -0.125000
v -0.031250 0.258373 -0.125000
v -0.027063 0.366627 -0.109375
v -0.054127 0.312500 -0.093750
v -0.046875 0.343750 -0.097937
v -0.027063 0.258373 -0.109375
v -0.046875 0.281250 -0.097937
v -0.015625 0.366627 -0.097937
v -0.031250 0.312500 -0.070873
v -0.027063 0.343750 -0.078125
v -0.027063 0.281250 -0.078125
v -0.015625 0.258373 -0.097937
vt 0.125000 0.031250
vt 0.125000 0.031250
vt 0.125000 0.031250
vt 0.125000 0.031250
vt 0.125000 0.031250
vt 0.125000 0.031250
vt 0.125000 0.031250
vt 0.125000 0.031250
vt 0.125000 0.031250
vt 0.125000 0.031250
vt 0.125000 0.031250
vt 0.125000 0.031250
vt 0.125000 0.031250
vt 0.125000 0.031250
vt 0.125000 0.031250
vt 0.125000 0.031250
vt 0.125000 0.031250
vt 0.125000 0.031250
vt 0.125000 0.031250
vt 0.125000 0.031250
vt 0.125000 0.031250
vt 0.125000 0.031250
vt 0.125000 0.029297
vt 0.125000 0.031250
vt 0.126953 0.031250
vt 0.126953 0.029297
vt 0.125000 0.029297
vt 0.126953 0.031250
vt 0.126953 0.029297
vt 0.126953 0.029297
vt 0.125000 0.029297
vt 0.126953 0.029297
vt 0.125000 0.029297
vt 0.125000 0.029297
vt 0.126953 0.031250
vt 0.125000 0.029297
vt 0.125000 0.031250
vt 0.126953 0.031250
vt 0.126953 0.029297
vt 0.125000 0.029297
vt 0.126953 0.031250
vt 0.126953 0.029297
vt 0.125000 0.031250
vt 0.126953 0.029297
vt 0.125000 0.029297
vt 0.125000 0.031250
vt 0.126953 0.029297
vt 0.125000 0.029297
vt 0.125000 0.029297
vt 0.125000 0.029297
vt 0.125000 0.031250
vt 0.126953 0.031250
vt 0.126953 0.029297
vt 0.128906 0.029297
vt 0.126953 0.031250
vt 0.128906 0.031250
vt 0.128906 0.031250
vt 0.125000 0.031250
vt 0.126953 0.029297
vt 0.125000 0.029297
vt 0.125000 0.029297
vt 0.125000 0.031250
vt 0.125000 0.031250
vt 0.126953 0.029297
vt 0.125000 0.029297
vt 0.128906 0.029297
vt 0.126953 0.029297
vt 0.126953 0.031250
vt 0.128906 0.029297
vt 0.126953 0.029297
vt 0.125000 0.029297
vt 0.126953 0.031250
vt 0.126953 0.029297
vt 0.125000 0.029297
vt 0.125000 0.031250
vt 0.125000 0.029297
vt 0.125000 0.031250
vt 0.125000 0.031250
vt 0.126953 0.029297
vt 0.126953 0.031250
vt 0.125000 0.029297
vt 0.126953 0.029297
vt 0.125000 0.029297
vt 0.126953 0.031250
vt 0.126953 0.029297
vt 0.125000 0.031250
vt 0.126953 0.029297
vt 0.125000 0.029297
vt 0.125000 0.029297
vt 0.125000 0.029297
vt 0.125000 0.031250
vt 0.125000 0.031250
vt 0.126953 0.029297
vt 0.125000 0.031250
vt 0.126953 0.029297
vt 0.125000 0.029297
vt 0.126953 0.031250
vt 0.126953 0.029297
vt 0.125000 0.031250
vt 0.125000 0.031250
vt 0.125000 0.031250
vt 0.125000 0.029297
vt 0.125000 0.031250
vt 0.125000 0.031250
vt 0.125000 0.031250
vt 0.125000 0.031250
vt 0.125000 0.031250
vt 0.125000 0.031250
vt 0.125000 0.031250
vt 0.125000 0.031250
vt 0.125000 0.031250
vt 0.125000 0.031250
vt 0.125000 0.031250
vt 0.125000 0.031250
vt 0.125000 0.031250
vt 0.126953 0.031250
vt 0.126953 0.031250
vt 0.126953 0.031250
vt 0.125000 0.031250
vt 0.125000 0.031250
vt 0.126953 0.031250
vt 0.126953 0.031250
vt 0.125000 0.031250
vt 0.128906 0.029297
vt 0.126953 0.031250
vt 0.126953 0.031250
vt 0.128906 0.031250
vt 0.128906 0.031250
vt 0.126953 0.031250
vt 0.125000 0.031250
vt 0.126953 0.031250
vt 0.126953 0.031250
vt 0.126953 0.031250
vn 0.0692 0.9636 0.2582
vn 0.1862 0.6947 0.6947
vn 0.2506 0.2506 0.9351
vn 0.2506 0.2505 0.9351
vn 0.2506 -0.2506 0.9351
vn 0.1862 -0.6947 0.6947
vn 0.0692 -0.9636 0.2582
vn 0.1890 0.9636 0.1890
vn 0.5086 0.6947 0.5086
vn 0.6845 0.2506 0.6845
vn 0.6845 -0.2506 0.6845
vn 0.5086 -0.6947 0.5086
vn 0.1890 -0.9636 0.1890
vn 0.2582 0.9636 0.0692
vn 0.6947 0.6947 0.1862
vn 0.9351 0.2506 0.2506
vn 0.9351 -0.2506 0.2506
vn 0.6947 -0.6947 0.1862
vn 0.2582 -0.9636 0.0692
vn 0.2582 0.9636 -0.0692
vn 0.6947 0.6947 -0.1862
vn 0.9351 0.2506 -0.2506
vn 0.9351 -0.2506 -0.2506
vn 0.6947 -0.6947 -0.1862
vn 0.2582 -0.9636 -0.0692
vn 0.1890 0.9636 -0.1890
vn 0.5086 0.6947 -0.5086
vn 0.6845 0.2506 -0.6845
vn 0.6845 -0.2506 -0.6845
vn 0.5086 -0.6947 -0.5086
vn 0.1890 -0.9636 -0.1890
vn 0.0692 0.9636 -0.2582
vn 0.1862 0.6947 -0.6947
vn 0.2506 0.2506 -0.9351
vn 0.2506 -0.2506 -0.9351
vn 0.1862 -0.6947 -0.6947
vn 0.0692 -0.9636 -0.2582
vn -0.0692 0.9636 -0.2582
vn -0.1862 0.6947 -0.6947
vn -0.2506 0.2506 -0.9351
vn -0.2506 -0.2506 -0.9351
vn -0.1862 -0.6947 -0.6947
vn -0.0692 -0.9636 -0.2582
vn -0.1890 0.9636 -0.1890
vn -0.5086 0.6947 -0.5086
vn -0.6845 0.2506 -0.6845
vn -0.6845 -0.2506 -0.6845
vn -0.5086 -0.6947 -0.5086
vn -0.1890 -0.9636 -0.1890
vn -0.2582 0.9636 -0.0692
vn -0.6947 0.6947 -0.1862
vn -0.9351 0.2506 -0.2506
vn -0.9351 -0.2506 -0.2506
vn -0.6947 -0.6947 -0.1862
vn -0.2582 -0.9636 -0.0692
vn -0.2582 0.9636 0.0692
vn -0.6947 0.6947 0.1862
vn -0.9351 0.2506 0.2506
vn -0.9351 -0.2506 0.2506
vn -0.6947 -0.6947 0.1862
vn -0.2582 -0.9636 0.0692
vn -0.1890 0.9636 0.1890
vn -0.5086 0.6947 0.5086
vn -0.6845 0.2506 0.6845
vn -0.6845 -0.2506 0.6845
vn -0.5086 -0.6947 0.5086
vn -0.1890 -0.9636 0.1890
vn -0.0692 0.9636 0.2582
vn -0.1862 0.6947 0.6947
vn -0.2506 0.2506 0.9351
vn -0.2506 0.2505 0.9351
vn -0.2506 -0.2506 0.9351
vn -0.1862 -0.6947 0.6947
vn -0.0692 -0.9636 0.2582
usemtl m_0
s 1
f 41/117/31 42/118/31 43/119/31
f 44/120/32 42/118/32 41/117/32
f 45/121/33 46/122/33 44/120/34
f 47/123/35 48/124/35 45/121/35
f 47/123/36 49/125/36 50/126/36
f 49/125/37 51/127/37 52/128/37
f 42/118/38 53/129/38 43/119/38
f 46/122/39 53/129/39 42/118/39
f 48/124/40 54/130/40 46/122/40
f 48/124/41 55/131/41 56/132/41
f 50/126/42 57/133/42 55/131/42
f 57/133/43 49/125/43 52/128/43
f 53/129/44 58/134/44 43/119/44
f 54/130/45 58/134/45 53/129/45
f 56/132/46 59/135/46 54/130/46
f 56/132/47 60/136/47 61/137/47
f 57/133/48 60/136/48 55/131/48
f 62/138/49 57/133/49 52/128/49
f 58/139/50 63/140/50 43/141/50
f 59/135/51 63/142/51 58/139/51
f 59/143/52 64/144/52 65/145/52
f 60/136/53 64/146/53 61/147/53
f 62/138/54 66/148/54 60/149/54
f 67/150/55 62/138/55 52/151/55
f 63/152/56 68/153/56 43/141/56
f 63/152/57 69/154/57 68/155/57
f 65/156/58 70/157/58 69/158/58
f 66/159/59 70/160/59 64/161/59
f 67/162/60 71/163/60 66/164/60
f 72/165/61 67/162/61 52/151/61
f 68/166/62 73/167/62 43/141/62
f 68/166/63 74/168/63 73/169/63
f 69/170/64 75/171/64 74/172/64
f 70/160/65 76/173/65 75/171/65
f 72/174/66 76/175/66 71/176/66
f 77/177/67 72/174/67 52/151/67
f 73/167/68 78/178/68 43/119/68
f 74/179/69 78/180/69 73/181/69
f 75/171/70 79/182/70 74/183/70
f 76/184/71 80/185/71 75/186/71
f 76/187/72 81/188/72 82/189/72
f 81/190/73 77/191/73 52/151/73
f 78/192/74 83/193/74 43/141/74
f 79/194/75 83/195/75 78/192/75
f 80/196/76 84/197/76 79/198/76
f 80/199/77 85/200/77 86/201/77
f 81/202/78 85/203/78 82/204/78
f 87/205/79 81/202/79 52/151/79
f 83/206/80 88/207/80 43/141/80
f 84/208/81 88/209/81 83/206/81
f 86/210/82 89/211/82 84/197/82
f 86/212/83 90/213/83 91/214/83
f 87/215/84 90/216/84 85/217/84
f 92/218/85 87/215/85 52/151/85
f 88/207/86 93/219/86 43/119/86
f 89/220/87 93/219/87 88/207/87
f 89/220/88 94/221/88 95/222/88
f 90/216/89 94/221/89 91/223/89
f 90/216/90 96/224/90 97/225/90
f 96/224/91 92/226/91 52/128/91
f 93/219/92 98/227/92 43/119/92
f 95/222/93 98/227/93 93/219/93
f 95/222/94 99/228/94 100/229/94
f 97/225/95 99/228/95 94/221/95
f 96/224/96 101/230/96 97/225/96
f 102/231/97 96/224/97 52/128/97
f 98/227/98 41/117/98 43/119/98
f 98/227/99 44/120/99 41/117/99
f 100/229/100 45/121/100 44/120/101
f 99/228/102 47/123/102 45/121/102
f 102/231/103 47/123/103 101/230/103
f 51/127/104 102/231/104 52/128/104
f 44/120/32 46/122/32 42/118/32
f 45/121/33 48/124/33 46/122/33
f 47/123/35 50/126/35 48/124/35
f 47/123/36 51/127/36 49/125/36
f 46/122/39 54/130/39 53/129/39
f 48/124/40 56/132/40 54/130/40
f 48/124/41 50/126/41 55/131/41
f 50/126/42 49/125/42 57/133/42
f 54/130/45 59/135/45 58/134/45
f 56/132/46 61/137/46 59/135/46
f 56/132/47 55/131/47 60/136/47
f 57/133/48 62/138/48 60/136/48
f 59/135/51 65/232/51 63/142/51
f 59/143/52 61/137/52 64/144/52
f 60/136/53 66/233/53 64/146/53
f 62/138/54 67/234/54 66/148/54
f 63/152/57 65/235/57 69/154/57
f 65/156/58 64/236/58 70/157/58
f 66/159/59 71/237/59 70/160/59
f 67/162/60 72/238/60 71/163/60
f 68/166/63 69/239/63 74/168/63
f 69/170/64 70/160/64 75/171/64
f 70/160/65 71/240/65 76/173/65
f 72/174/66 77/241/66 76/175/66
f 74/179/69 79/242/69 78/180/69
f 75/171/70 80/243/70 79/182/70
f 76/184/71 82/244/71 80/185/71
f 76/187/72 77/191/72 81/188/72
f 79/194/75 84/245/75 83/195/75
f 80/196/76 86/210/76 84/197/76
f 80/199/77 82/246/77 85/200/77
f 81/202/78 87/247/78 85/203/78
f 84/208/81 89/248/81 88/209/81
f 86/210/82 91/249/82 89/211/82
f 86/212/83 85/217/83 90/213/83
f 87/215/84 92/226/84 90/216/84
f 89/220/87 95/222/87 93/219/87
f 89/220/88 91/223/88 94/221/88
f 90/216/89 97/225/89 94/221/89
f 90/216/90 92/226/90 96/224/90
f 95/222/93 100/229/93 98/227/93
f 95/222/94 94/221/94 99/228/94
f 97/225/95 101/230/95 99/228/95
f 96/224/96 102/231/96 101/230/96
f 98/227/99 100/229/99 44/120/99
f 100/229/100 99/228/100 45/121/100
f 99/228/102 101/230/102 47/123/102
f 102/231/103 51/127/103 47/123/103
o cube.004
v -0.187500 0.312500 -0.088388
v -0.125000 0.400888 0.000000
v -0.125000 0.312500 -0.088388
v -0.125000 0.312500 0.088388
v -0.125000 0.224112 0.000000
v -0.187500 0.312500 0.088388
v -0.187500 0.224112 0.000000
v -0.187500 0.400888 0.000000
vt 0.126953 0.029297
vt 0.125000 0.031250
vt 0.125000 0.029297
vt 0.126953 0.029297
vt 0.125000 0.031250
vt 0.125000 0.029297
vt 0.126953 0.029297
vt 0.125000 0.031250
vt 0.125000 0.029297
vt 0.126953 0.029297
vt 0.125000 0.031250
vt 0.125000 0.029297
vt 0.126953 0.029297
vt 0.125000 0.029297
vt 0.125000 0.031250
vt 0.126953 0.031250
vt 0.126953 0.031250
vt 0.126953 0.031250
vt 0.126953 0.031250
vt 0.126953 0.031250
vn 0.0000 0.7071 -0.7071
vn 1.0000 0.0000 0.0000
vn 0.0000 -0.7071 0.7071
vn -1.0000 0.0000 0.0000
vn 0.0000 0.7071 0.7071
vn 0.0000 -0.7071 -0.7071
usemtl m_0
s 1
f 103/250/105 104/251/105 105/252/105
f 105/253/106 106/254/106 107/255/106
f 107/256/107 108/257/107 109/258/107
f 109/259/108 110/260/108 103/261/108
f 106/262/109 110/260/109 108/263/109
f 105/253/110 109/264/110 103/261/110
f 103/250/105 110/265/105 104/251/105
f 105/253/106 104/266/106 106/254/106
f 107/256/107 106/267/107 108/257/107
f 109/259/108 108/268/108 110/260/108
f 106/262/109 104/266/109 110/260/109
f 105/253/110 107/269/110 109/264/110
o cube.005
v 0.125000 0.312500 -0.088388
v 0.187500 0.400888 0.000000
v 0.187500 0.312500 -0.088388
v 0.187500 0.312500 0.088388
v 0.187500 0.224112 0.000000
v 0.125000 0.312500 0.088388
v 0.125000 0.224112 0.000000
v 0.125000 0.400888 0.000000
vt 0.126953 0.029297
vt 0.125000 0.031250
vt 0.125000 0.029297
vt 0.126953 0.029297
vt 0.125000 0.031250
vt 0.125000 0.029297
vt 0.126953 0.029297
vt 0.125000 0.031250
vt 0.125000 0.029297
vt 0.126953 0.029297
vt 0.125000 0.031250
vt 0.125000 0.029297
vt 0.126953 0.029297
vt 0.125000 0.029297
vt 0.125000 0.031250
vt 0.126953 0.031250
vt 0.126953 0.031250
vt 0.126953 0.031250
vt 0.126953 0.031250
vt 0.126953 0.031250
vn 0.0000 0.7071 -0.7071
vn 1.0000 -0.0000 0.0000
vn 0.0000 -0.7071 0.7071
vn -1.0000 0.0000 0.0000
vn 0.0000 0.7071 0.7071
vn 0.0000 -0.7071 -0.7071
usemtl m_0
s 1
f 111/270/111 112/271/111 113/272/111
f 113/273/112 114/274/112 115/275/112
f 115/276/113 116/277/113 117/278/113
f 117/279/114 118/280/114 111/281/114
f 114/282/115 118/280/115 116/283/115
f 113/273/116 117/284/116 111/281/116
f 111/270/111 118/285/111 112/271/111
f 113/273/112 112/286/112 114/274/112
f 115/276/113 114/287/113 116/277/113
f 117/279/114 116/288/114 118/280/114
f 114/282/115 112/286/115 118/280/115
f 113/273/116 115/289/116 117/284/116
